<svg xmlns="http://www.w3.org/2000/svg" viewBox="0 0 64 64" width="64" height="64" role="img" aria-labelledby="icon-title">
  <title id="icon-title">FiskCleanout</title>
  <rect width="64" height="64" rx="14" fill="#10307A"/>
  <g fill="none" stroke="#FFFFFF" stroke-width="1.6" stroke-linecap="round" stroke-linejoin="round" transform="scale(2)">
    <path d="M16 4.6 C13.9 4.6 12 5.1 10.4 6 C9.9 5.7 9.3 5.5 8.6 5.5 C6.6 5.5 5.4 7 5.4 9.2 C5.4 11.6 6.6 13.6 8.4 14.3 C7.6 16 7.2 17.7 7.2 19 C7.2 24 11 27.5 16 27.5 C21 27.5 24.8 24 24.8 19 C24.8 17.7 24.4 16 23.6 14.3 C25.4 13.6 26.6 11.6 26.6 9.2 C26.6 7 25.4 5.5 23.4 5.5 C22.7 5.5 22.1 5.7 21.6 6 C20 5.1 18.1 4.6 16 4.6 Z"/>
    <path d="M12 15 h.01 M20 15 h.01"/>
    <rect x="13.8" y="17.2" width="4.4" height="2.6" rx="1.3"/>
    <path d="M16 19.8 V21.6 M16 21.6 C14.9 23.6 12.9 23.9 11.2 22.9 M16 21.6 C17.1 23.6 19.1 23.9 20.8 22.9"/>
  </g>
</svg>
